# xmcd CD database file
#
# Track frame offsets:
#	150
#	14126
#	24744
#	43413
#	55691
#	71095
#	94798
#	109483
#	133055
#	146751
#	161274
#	176636
#	197635
#
# Disc length: 2836 seconds
#
# Revision: 0
# Processed by: cddbd v1.5.1PL2 Copyright (c) Steve Scherf et al.
# Submitted via: CDex 1.51
#
DISCID=c40b120d
DTITLE=The Bill Potts Big Band - The Jazz Soul Of Porgy And Bess
DYEAR=1959
DGENRE=Jazz
TTITLE0=01-Summertime
TTITLE1=02-A.Woman.Is.A.Sometimes.Thing
TTITLE2=03-My.Man´s.Gone.Now
TTITLE3=04-It.Takes.A.Long.Pull.To.Get.There
TTITLE4=05-I.Got.Plenty.O´.Nuttin
TTITLE5=06-Bess.You.Is.My.Woman
TTITLE6=07-It.Ain´t.Necessarily.So
TTITLE7=08-Medley
TTITLE8=09-I-Loves.You,Porgy
TTITLE9=10-Clara,Clara
TTITLE10=11-There´s.A.Boat.Dat´s.Leavin´.Soon.For.New.York
TTITLE11=12-Oh.Bess,Oh.Where´s.My.Bess
TTITLE12=13-Oh.Lawd,I´m.On.My.Way
EXTD=YEAR: 1959
EXTT0=
EXTT1=
EXTT2=
EXTT3=
EXTT4=
EXTT5=
EXTT6=
EXTT7=
EXTT8=
EXTT9=
EXTT10=
EXTT11=
EXTT12=
PLAYORDER=
